<?xml version="1.0" standalone="no"?>
<!DOCTYPE svg PUBLIC "-//W3C//DTD SVG 1.1//EN" "http://www.w3.org/Graphics/SVG/1.1/DTD/svg11.dtd" >
<svg xmlns="http://www.w3.org/2000/svg">
<metadata>Generated by IcoMoon</metadata>
<defs>
<font id="icomoon" horiz-adv-x="1024">
<font-face units-per-em="1024" ascent="960" descent="-64" />
<missing-glyph horiz-adv-x="1024" />
<glyph unicode="&#x20;" horiz-adv-x="512" d="" />
<glyph unicode="&#xe900;" glyph-name="cikis-yap" horiz-adv-x="815" d="M0 448c0-13.579 5.367-26.601 14.92-36.204s22.509-14.996 36.019-14.996h386.625l-117.158-117.248c-4.775-4.761-8.564-10.422-11.151-16.662-2.585-6.238-3.916-12.932-3.916-19.69s1.331-13.452 3.916-19.69c2.587-6.24 6.376-11.901 11.151-16.662 4.735-4.798 10.37-8.608 16.576-11.208s12.865-3.937 19.59-3.937c6.725 0 13.383 1.337 19.59 3.937s11.841 6.409 16.576 11.208l203.755 204.8c4.637 4.869 8.274 10.612 10.698 16.896 5.095 12.466 5.095 26.446 0 38.912-2.424 6.284-6.060 12.027-10.698 16.896l-203.755 204.8c-4.748 4.773-10.386 8.56-16.593 11.145-6.205 2.583-12.856 3.912-19.573 3.912s-13.368-1.329-19.573-3.912c-6.205-2.585-11.845-6.372-16.593-11.145-4.75-4.773-8.518-10.441-11.088-16.679s-3.893-12.921-3.893-19.673c0-6.752 1.323-13.435 3.893-19.673s6.338-11.906 11.088-16.679l117.158-117.248h-386.625c-13.51 0-26.466-5.394-36.019-14.996s-14.92-22.624-14.92-36.204zM662.204 960h-509.388c-40.53 0-79.399-16.183-108.057-44.988s-44.759-67.874-44.759-108.612v-153.6c0-13.579 5.367-26.601 14.92-36.204s22.509-14.996 36.019-14.996c13.51 0 26.466 5.394 36.019 14.996s14.92 22.624 14.92 36.204v153.6c0 13.579 5.367 26.602 14.92 36.204s22.509 14.996 36.019 14.996h509.388c13.511 0 26.467-5.394 36.020-14.996s14.919-22.625 14.919-36.204v-716.8c0-13.579-5.367-26.601-14.919-36.204s-22.509-14.996-36.020-14.996h-509.388c-13.51 0-26.466 5.394-36.019 14.996s-14.92 22.624-14.92 36.204v153.6c0 13.579-5.367 26.601-14.92 36.204s-22.509 14.996-36.019 14.996c-13.51 0-26.466-5.394-36.019-14.996s-14.92-22.624-14.92-36.204v-153.6c0-40.736 16.1-79.805 44.759-108.611s67.528-44.989 108.057-44.989h509.388c40.53 0 79.4 16.183 108.057 44.989 28.659 28.806 44.759 67.874 44.759 108.611v716.8c0 40.737-16.1 79.806-44.759 108.612-28.657 28.806-67.528 44.988-108.057 44.988z" />
<glyph unicode="&#xe901;" glyph-name="kredi-karti" horiz-adv-x="1297" d="M1142.024 960h-986.978c-85.496 0-155.046-82.081-155.046-182.984v-658.032c0-100.896 69.55-182.984 155.046-182.984h986.973c85.49 0 155.047 82.088 155.047 182.984v658.032c0.002 100.903-69.552 182.984-155.043 182.984zM1211.278 118.987c0-45.070-31.068-81.733-69.254-81.733h-986.978c-38.187 0-69.259 36.664-69.259 81.733v440.975h1125.487l0.005-440.975zM1211.278 704.405l-1125.489-0.096v72.71c0 45.070 31.073 81.738 69.26 81.738h986.975c38.186 0 69.254-36.668 69.254-81.738v-72.614zM192.25 131.152h234.853c8.408 0 15.233 8.044 15.233 17.97v54.684c0 9.926-6.824 17.972-15.233 17.972h-234.853c-8.409 0-15.232-8.046-15.232-17.972v-54.684c-0.003-9.926 6.82-17.97 15.232-17.97zM881.414 384.096c24.405 0 46.901-9.648 64.917-25.869 18.018 16.213 40.505 25.869 64.917 25.869 59.187 0 107.167-56.625 107.167-126.475s-47.982-126.469-107.167-126.469c-24.408 0-46.899 9.644-64.917 25.869-18.016-16.22-40.505-25.869-64.917-25.869-59.187 0-107.165 56.618-107.165 126.469s47.982 126.475 107.165 126.475z" />
<glyph unicode="&#xe902;" glyph-name="arama-iptal" d="M512 960c-283.136 0-512-228.864-512-512s228.864-512 512-512c283.136 0 512 228.864 512 512s-228.864 512-512 512zM732.16 227.84c-4.736-4.748-10.363-8.513-16.556-11.080-6.195-2.569-12.835-3.891-19.54-3.891s-13.345 1.322-19.54 3.891c-6.193 2.567-11.82 6.333-16.556 11.080l-147.968 147.968-147.968-147.968c-9.572-9.574-22.558-14.95-36.096-14.95s-26.524 5.376-36.096 14.95c-9.572 9.574-14.95 22.558-14.95 36.096 0 6.703 1.32 13.342 3.884 19.535s6.326 11.82 11.066 16.561l147.968 147.968-147.968 147.968c-9.572 9.572-14.95 22.558-14.95 36.096s5.378 26.524 14.95 36.096c9.572 9.572 22.558 14.95 36.096 14.95s26.524-5.378 36.096-14.95l147.968-147.968 147.968 147.968c4.741 4.741 10.368 8.502 16.561 11.066s12.833 3.884 19.535 3.884c6.703 0 13.342-1.32 19.535-3.884s11.82-6.326 16.561-11.066c4.741-4.741 8.499-10.368 11.066-16.561s3.884-12.833 3.884-19.535c0-6.703-1.317-13.342-3.884-19.535s-6.326-11.82-11.066-16.561l-147.968-147.968 147.968-147.968c19.456-19.456 19.456-52.224 0-72.192z" />
<glyph unicode="&#xe903;" glyph-name="begen-dolu" horiz-adv-x="1252" d="M1130.075 889.982c-133.951 106.741-333.17 87.542-456.124-31.085l-48.156-46.399-48.156 46.399c-122.706 118.626-322.169 137.826-456.122 31.085-153.508-122.512-161.575-342.394-24.199-475.191l472.988-456.678c30.555-29.486 80.179-29.486 110.734 0l472.991 456.678c137.62 132.797 129.553 352.679-23.956 475.191v0z" />
<glyph unicode="&#xe904;" glyph-name="begen-bos" horiz-adv-x="1252" d="M1120.535 886.141c-141.289 111.056-359.578 94.375-494.757-34.276-135.178 128.651-353.467 145.56-494.755 34.276-183.822-144.646-156.933-380.468-25.911-505.463l428.755-408.343c24.445-23.307 57.198-36.335 91.911-36.335 34.958 0 67.465 12.794 91.91 36.102l428.754 408.348c130.782 124.995 158.157 360.817-25.907 505.691v0zM1062.844 457.686l-428.754-408.347c-5.865-5.484-10.758-5.484-16.623 0l-428.755 408.347c-89.222 85.006-107.311 245.876 17.844 344.364 95.089 74.722 241.756 63.526 333.666-23.993l85.556-81.578 85.555 81.578c92.399 87.976 239.064 98.716 333.665 24.222 124.911-98.487 106.337-260.272 17.846-344.592v0z" />
<glyph unicode="&#xe905;" glyph-name="anasayfa-line" d="M993.251 429.148l-11.317-12.863c-0.008-0.008-0.016-0.018-0.024-0.029-12.895-14.669-29.567-27.076-48.317-33.59-1.491-0.517-3.093-1.024-4.792-1.502v-329.93c0-52.232-41.383-97.545-96.062-97.545h-165.376c-58.035 0-93.888 48.929-93.423 97.821v230.949h-94.022v-231.243c0-52.232-41.383-97.545-96.062-97.545h-156.053c-54.679 0-96.063 45.313-96.063 97.545v315.179c-28.277-1.021-56.555 10.852-75.953 31.728l-10.015 10.784c-0.004 0.005 0.004-0.003 0 0-36.238 38.965-34.436 100.11 4.245 136.778l400.336 379.456c0 0.001 0-0.001 0 0 37.633 35.671 97.753 36.397 136.221 1.613l398.979-360.983c0.003-0.003-0.003 0.003 0 0 39.534-35.759 42.722-96.792 7.696-136.623zM950.335 526.819l-398.979 360.984c-18.109 16.376-47.143 16.032-64.872-0.773l-400.337-379.457c-17.728-16.804-18.598-44.977-1.926-62.895l10.037-10.81c10.221-10.999 24.309-16.051 37.485-14.774 8.289 0.801 16.217 4.109 22.594 10.017l29.919 27.706v-405.601c0-24.886 19.501-45.032 43.55-45.032h156.053c24.048 0 43.549 20.147 43.549 45.032v283.756h199.047v-283.756c-0.347-24.867 16.859-45.014 40.91-45.014h165.376c24.048 0 43.549 20.147 43.549 45.032v399.872c0 0 8.266-7.488 18.458-16.752 7.475-6.793 20.992-4.595 34.055 4.348 4.724 3.235 9.384 7.349 13.682 12.241l11.34 12.889c16.182 18.406 14.62 46.613-3.489 62.987z" />
<glyph unicode="&#xe906;" glyph-name="anasayfa" d="M1004.313 451.002c18.031 20.506 16.29 51.937-3.888 70.182l-444.577 402.24c-20.182 18.247-52.534 17.865-72.289-0.862l-446.087-422.823c-19.755-18.725-20.724-50.117-2.147-70.083l11.184-12.045c18.555-19.965 48.547-22.347 66.946-5.301l33.338 30.872v-451.956c0-27.73 21.729-50.179 48.527-50.179h173.888c26.797 0 48.526 22.449 48.526 50.179v316.185h221.795v-316.185c-0.386-27.709 18.786-50.158 45.586-50.158h184.276c26.797 0 48.526 22.449 48.526 50.179v445.572c0 0 9.21-8.344 20.568-18.666 11.34-10.304 35.158-2.042 53.189 18.485l12.639 14.365z" />
<glyph unicode="&#xe907;" glyph-name="kategori-line" horiz-adv-x="1074" d="M49.951 910.049h199.805v-199.805h-199.805v199.805zM24.976 960c-13.794 0-24.976-11.182-24.976-24.976v-249.756c0-13.794 11.182-24.976 24.976-24.976h249.756c13.794 0 24.976 11.182 24.976 24.976v249.756c0 13.794-11.182 24.976-24.976 24.976h-249.756zM399.61 910.049h624.39v-199.805h-624.39v199.805zM374.634 960c-13.794 0-24.976-11.182-24.976-24.976v-249.756c0-13.794 11.182-24.976 24.976-24.976h674.341c13.794 0 24.976 11.182 24.976 24.976v249.756c0 13.794-11.182 24.976-24.976 24.976h-674.341zM49.951 560.39h199.805v-224.78h-199.805v224.78zM24.976 610.341c-13.794 0-24.976-11.182-24.976-24.976v-274.732c0-13.794 11.182-24.976 24.976-24.976h249.756c13.794 0 24.976 11.182 24.976 24.976v274.732c0 13.794-11.182 24.976-24.976 24.976h-249.756zM399.61 560.39h624.39v-224.78h-624.39v224.78zM374.634 610.341c-13.794 0-24.976-11.182-24.976-24.976v-274.732c0-13.794 11.182-24.976 24.976-24.976h674.341c13.794 0 24.976 11.182 24.976 24.976v274.732c0 13.794-11.182 24.976-24.976 24.976h-674.341zM49.951 185.756h199.805v-199.805h-199.805v199.805zM24.976 235.707c-13.794 0-24.976-11.182-24.976-24.976v-249.756c0-13.794 11.182-24.976 24.976-24.976h249.756c13.794 0 24.976 11.182 24.976 24.976v249.756c0 13.794-11.182 24.976-24.976 24.976h-249.756zM399.61 185.756h624.39v-199.805h-624.39v199.805zM374.634 235.707c-13.794 0-24.976-11.182-24.976-24.976v-249.756c0-13.794 11.182-24.976 24.976-24.976h674.341c13.794 0 24.976 11.182 24.976 24.976v249.756c0 13.794-11.182 24.976-24.976 24.976h-674.341z" />
<glyph unicode="&#xe908;" glyph-name="kategori-dolu" horiz-adv-x="1074" d="M0 935.024c0 13.794 11.182 24.976 24.976 24.976h249.756c13.794 0 24.976-11.182 24.976-24.976v-249.756c0-13.794-11.182-24.976-24.976-24.976h-249.756c-13.794 0-24.976 11.182-24.976 24.976v249.756zM349.659 935.024c0 13.794 11.182 24.976 24.976 24.976h674.341c13.794 0 24.976-11.182 24.976-24.976v-249.756c0-13.794-11.182-24.976-24.976-24.976h-674.341c-13.794 0-24.976 11.182-24.976 24.976v249.756zM0 585.366c0 13.794 11.182 24.976 24.976 24.976h249.756c13.794 0 24.976-11.182 24.976-24.976v-274.732c0-13.794-11.182-24.976-24.976-24.976h-249.756c-13.794 0-24.976 11.182-24.976 24.976v274.732zM349.659 585.366c0 13.794 11.182 24.976 24.976 24.976h674.341c13.794 0 24.976-11.182 24.976-24.976v-274.732c0-13.794-11.182-24.976-24.976-24.976h-674.341c-13.794 0-24.976 11.182-24.976 24.976v274.732zM0 210.732c0 13.794 11.182 24.976 24.976 24.976h249.756c13.794 0 24.976-11.182 24.976-24.976v-249.756c0-13.794-11.182-24.976-24.976-24.976h-249.756c-13.794 0-24.976 11.182-24.976 24.976v249.756zM349.659 210.732c0 13.794 11.182 24.976 24.976 24.976h674.341c13.794 0 24.976-11.182 24.976-24.976v-249.756c0-13.794-11.182-24.976-24.976-24.976h-674.341c-13.794 0-24.976 11.182-24.976 24.976v249.756z" />
<glyph unicode="&#xe909;" glyph-name="profil" horiz-adv-x="873" d="M436.706 448c137.836 0 249.546 114.601 249.546 256s-111.709 256-249.546 256c-137.835 0-249.546-114.6-249.546-256s111.711-256 249.546-256zM611.388 384h-32.557c-43.282-20.399-91.437-32-142.125-32s-98.647 11.601-142.124 32h-32.558c-144.659 0-262.024-120.401-262.024-268.8v-83.2c0-53.001 41.916-96 93.58-96h686.253c51.664 0 93.579 42.999 93.579 96v83.2c0 148.399-117.365 268.8-262.024 268.8z" />
<glyph unicode="&#xe90a;" glyph-name="profil-line" horiz-adv-x="889" d="M602.815 444.626c159.598-1.040 286.448-133.788 286.448-294.395v-74.442c0-75.881-60.343-139.789-137.623-139.789h-614.016c-77.28 0-137.624 63.908-137.624 139.789v74.442c0 160.606 126.848 293.354 286.448 294.395-72.169 51.329-118.989 136.731-118.989 232.426 0 154.975 122.791 282.947 277.173 282.947s277.173-127.972 277.173-282.947c0-95.695-46.821-181.097-118.989-232.426zM571.796 390.737c-38.726-18.251-81.812-28.632-127.165-28.632s-88.263 10.38-127.165 28.632h-29.13c-129.432 0-234.442-107.727-234.442-240.505v-74.442c0-47.422 37.504-85.895 83.729-85.895h614.016c46.226 0 83.728 38.473 83.728 85.895v74.442c0 132.778-105.011 240.505-234.442 240.505h-29.13zM667.909 677.053c0 126.516-99.95 229.053-223.278 229.053s-223.278-102.537-223.278-229.053c0-126.515 99.951-229.053 223.278-229.053s223.278 102.537 223.278 229.053z" />
<glyph unicode="&#xe90b;" glyph-name="uzmanlar-dolu" horiz-adv-x="1084" d="M552.421-63.575c-86.664 2.985-166.921 27.266-237.363 67.735l-67.451-14.908-247.607-53.251 73.855 227.912 26.042 80.514c-29.457 67.735-45.252 142.712-42.264 221.097 9.819 282.866 247.607 503.962 531.074 494.164s505.034-247.082 495.215-529.947c-10.246-282.016-248.034-503.112-531.501-493.315z" />
<glyph unicode="&#xe90c;" glyph-name="asagi-ok" horiz-adv-x="1730" d="M265.147 914.586l600.765-603.403 600.76 603.403c14.336 14.398 31.356 25.819 50.084 33.611s38.803 11.803 59.078 11.803c20.272 0 40.346-4.011 59.074-11.803 18.732-7.792 35.748-19.213 50.084-33.611s25.706-31.491 33.464-50.303c7.758-18.812 11.751-38.974 11.751-59.336s-3.994-40.524-11.751-59.336c-7.758-18.812-19.128-35.905-33.464-50.303l-710.698-713.821c-60.384-60.649-157.933-60.649-218.317 0l-710.696 713.821c-14.354 14.388-25.741 31.477-33.511 50.29s-11.769 38.981-11.769 59.349c0 20.368 3.999 40.536 11.769 59.349s19.158 35.903 33.511 50.29c60.386 59.096 159.481 60.651 219.867 0z" />
<glyph unicode="&#xe90d;" glyph-name="ayarlar" horiz-adv-x="939" d="M842.55 375.535l84.247-50.785c9.623-5.8 14.089-17.792 10.792-28.871-21.885-73.583-59.247-140.060-108.114-195.274-3.658-4.136-8.55-6.847-13.881-7.694-5.328-0.845-10.772 0.228-15.44 3.041l-84.187 50.776c-35.419-31.693-76.14-56.28-120.112-72.525v-101.538c0-5.632-1.838-11.096-5.205-15.491-3.371-4.398-8.073-7.467-13.332-8.701-69.106-16.208-143.326-17.044-215.916-0.014-10.854 2.546-18.588 12.584-18.588 24.203v101.541c-43.975 16.242-84.696 40.832-120.116 72.525l-84.184-50.776c-4.668-2.813-10.113-3.886-15.442-3.041-5.328 0.848-10.223 3.558-13.88 7.694-48.865 55.214-86.231 121.691-108.115 195.274-3.296 11.076 1.17 23.071 10.792 28.871l84.25 50.785c-8.462 47.906-8.462 97.024 0 144.927l-84.248 50.785c-9.622 5.8-14.087 17.792-10.792 28.871 21.884 73.586 59.248 140.062 108.115 195.275 3.657 4.134 8.552 6.847 13.88 7.693s10.774-0.226 15.442-3.039l84.184-50.777c35.42 31.694 76.142 56.282 120.114 72.526v101.539c0 5.631 1.838 11.095 5.205 15.492 3.371 4.397 8.073 7.465 13.332 8.7 69.106 16.206 143.326 17.045 215.916 0.014 10.854-2.546 18.588-12.585 18.588-24.202v-101.541c43.975-16.244 84.696-40.832 120.115-72.527l84.184 50.777c4.668 2.813 10.115 3.885 15.442 3.039s10.223-3.558 13.881-7.693c48.865-55.213 86.229-121.691 108.114-195.274 3.294-11.076-1.172-23.071-10.792-28.871l-84.25-50.785c8.462-47.906 8.462-97.024 0-144.93zM627.484 448c0 91.071-70.946 165.16-158.151 165.16s-158.151-74.089-158.151-165.16c0-91.071 70.946-165.16 158.151-165.16s158.151 74.089 158.151 165.16z" />
<glyph unicode="&#xe90e;" glyph-name="arama" d="M773.51 286.9c-33.241 32.815-74.738 32.815-107.766 0-25.193-24.983-50.389-49.963-75.159-75.369-6.775-6.988-12.493-8.469-20.748-3.811-16.304 8.892-33.665 16.091-49.332 25.83-73.042 45.942-134.23 105.007-188.427 171.487-26.89 33.025-50.813 68.381-67.539 108.184-3.388 8.045-2.752 13.337 3.811 19.902 25.196 24.346 49.755 49.329 74.525 74.309 34.509 34.722 34.512 75.372-0.21 110.303-19.691 19.901-39.38 39.379-59.071 59.28-20.325 20.324-40.438 40.861-60.974 60.973-33.24 32.392-74.737 32.392-107.765-0.212-25.406-24.982-49.754-50.599-75.583-75.158-23.924-22.653-35.992-50.388-38.533-82.779-4.023-52.717 8.892-102.469 27.1-150.951 37.262-100.352 94.003-189.484 162.811-271.205 92.944-110.515 203.885-197.95 333.667-261.040 58.434-28.37 118.986-50.176 184.832-53.777 45.308-2.541 84.688 8.892 116.232 44.248 21.595 24.136 45.942 46.155 68.807 69.231 33.875 34.298 34.088 75.793 0.423 109.668-40.227 40.437-80.664 80.661-121.1 120.887zM688.585 479.041l77.857 10.187c-12.238 54.814-45.997 104.456-97.269 143.908-54.228 41.558-122.8 67.752-198.335 75.837l-10.973-59.99c58.445-6.307 111.616-26.519 153.606-58.695 39.668-30.399 65.619-68.885 75.115-111.248zM848.24 784.559c-82.382 84.513-186.614 137.88-301.679 154.346l-10.055-73.602c99.4-14.284 189.515-60.508 260.68-133.317 67.49-69.237 111.774-156.725 127.826-252.945l71.359 12.498c-18.759 111.494-70.006 212.673-148.131 293.020z" />
<glyph unicode="&#xe90f;" glyph-name="kamera" horiz-adv-x="1182" d="M1181.538 704v-658.285c0-60.571-49.614-109.715-110.771-109.715h-959.999c-61.154 0-110.769 49.144-110.769 109.715v658.285c0 60.571 49.615 109.714 110.769 109.714h203.076l28.386 75.2c16.153 42.743 57.462 71.086 103.616 71.086h289.613c46.156 0 87.463-28.343 103.616-71.086l28.617-75.2h203.075c61.156 0 110.771-49.143 110.771-109.714zM867.693 374.858c0 151.313-124.153 274.285-276.924 274.285s-276.924-122.972-276.924-274.285c0-151.316 124.153-274.285 276.924-274.285s276.924 122.969 276.924 274.285zM793.847 374.858c0-110.857-91.154-201.142-203.078-201.142s-203.078 90.285-203.078 201.142c0 110.857 91.154 201.142 203.078 201.142s203.078-90.285 203.078-201.142z" />
<glyph unicode="&#xe910;" glyph-name="onay" horiz-adv-x="1344" d="M456.483-43.888l-436.802 446.285c-26.242 26.813-26.242 70.285 0 97.098l95.033 97.101c26.242 26.813 68.794 26.813 95.036 0l294.25-300.637 630.25 643.933c26.243 26.812 68.794 26.812 95.037 0l95.034-97.099c26.24-26.812 26.24-70.284 0-97.099l-772.803-789.584c-26.243-26.813-68.794-26.813-95.034 0.003z" />
<glyph unicode="&#xe911;" glyph-name="saat" d="M512 38.4c-225.843 0-409.599 183.757-409.599 409.6s183.756 409.6 409.599 409.6c225.843 0 409.6-183.757 409.6-409.6s-183.757-409.6-409.6-409.6zM512.002 755.2c-169.421 0-307.2-137.779-307.2-307.2s137.779-307.2 307.2-307.2c169.421 0 307.2 137.779 307.2 307.2s-137.779 307.2-307.2 307.2zM614.402 294.4c-13.107 0-26.214 5.018-36.198 15.002l-102.4 102.4c-9.626 9.574-15.002 22.63-15.002 36.198v153.6c0 28.262 22.886 51.2 51.2 51.2s51.2-22.938 51.2-51.2v-132.403l87.398-87.398c20.019-20.019 20.019-52.378 0-72.397-9.984-9.984-23.091-15.002-36.198-15.002z" />
<glyph unicode="&#xe912;" glyph-name="gorusme-sonlandir" horiz-adv-x="1138" d="M256.397 481.739c48.114 0.316 78.341 31.171 78.495 80.131 0.155 37.31 0.309 74.619-0.152 111.929-0.154 10.233 2.93 15.585 12.337 18.261 18.351 5.51 36.24 13.067 54.745 17.475 86.668 20.152 174.263 21.727 262.162 12.598 43.639-4.565 86.824-13.065 127.994-30.224 8.329-3.463 11.725-7.871 11.719-17.632-0.614-36.838-0.307-73.675-0.154-110.671 0.154-51.478 29.764-81.703 80.498-81.86 28.837-0.157 57.367 0.001 86.204-0.156 29.611 0 59.221-0.314 88.826 0.001 47.809 0.63 78.034 31.486 78.342 80.288 0.313 37.468-0.614 74.62 0.313 112.087 0.927 34.634-10.485 64.23-32.228 90.205-35.47 42.189-81.118 69.581-129.695 92.092-100.238 46.911-206.49 70.996-316.137 80.597-148.196 13.064-292.693-4.412-433.182-54.003-63.228-22.356-123.217-51.165-173.799-97.449-34.853-31.8-55.209-69.583-52.434-119.33 1.85-34.004 0.153-68.48 0.307-102.641 0.308-50.691 30.379-81.703 79.573-81.86 58.755-0.156 117.51 0.002 176.265 0.16zM553.311 113.812l114.889-117.282c14.103-14.393 36.961-14.393 51.069 0l25.532 26.066c14.103 14.393 14.103 37.729 0 52.133l-114.887 117.282 114.887 117.282c14.103 14.393 14.103 37.729 0 52.133l-25.532 26.066c-14.097 14.393-36.955 14.393-51.069 0l-114.889-117.282-114.891 117.282c-14.099 14.393-36.958 14.393-51.068 0l-25.533-26.066c-14.099-14.393-14.099-37.74 0-52.133l114.891-117.282-114.891-117.282c-14.099-14.393-14.099-37.74 0-52.133l25.533-26.066c14.099-14.393 36.958-14.393 51.068 0l114.891 117.282z" />
<glyph unicode="&#xe913;" glyph-name="paylas" horiz-adv-x="896" d="M704 320c-45.215 0-86.774-15.639-119.58-41.789l-204.972 128.108c6.070 27.456 6.070 55.908 0 83.366l204.972 128.108c32.806-26.153 74.365-41.792 119.58-41.792 106.038 0 192 85.962 192 192s-85.962 192-192 192c-106.038 0-192-85.962-192-192 0-14.316 1.58-28.26 4.552-41.682l-204.972-128.108c-32.806 26.15-74.364 41.789-119.58 41.789-106.038 0-192-85.962-192-192s85.962-192 192-192c45.216 0 86.774 15.639 119.58 41.789l204.972-128.108c-3.028-13.686-4.557-27.663-4.552-41.682 0-106.038 85.962-192 192-192s192 85.962 192 192c0 106.038-85.962 192-192 192z" />
<glyph unicode="&#xe914;" glyph-name="mesaj" horiz-adv-x="1376" d="M1349.933 621.866c10.48 8.269 26.067 0.534 26.067-12.531v-545.334c0-70.666-57.782-128-128.998-128h-1118.002c-71.219 0-129 57.334-129 128v545.066c0 13.334 15.319 20.8 26.069 12.534 60.2-46.4 140.019-105.334 414.142-302.934 56.707-41.066 152.384-127.466 247.789-126.931 95.942-0.8 193.501 87.466 248.058 126.931 274.125 197.6 353.674 256.8 413.875 303.2zM688 277.334c62.349-1.069 152.112 77.866 197.264 110.4 356.63 256.799 383.773 279.199 466.010 343.199 15.59 12 24.726 30.667 24.726 50.4v50.667c0 70.667-57.782 128-128.998 128h-1118.002c-71.219 0-129-57.333-129-128v-50.667c0-19.733 9.138-38.133 24.725-50.4 82.238-63.733 109.381-86.4 466.011-343.199 45.152-32.534 134.915-111.469 197.264-110.4z" />
<glyph unicode="&#xe915;" glyph-name="goruntuleme" horiz-adv-x="1052" d="M1001.859 486.746c-94.097 163.286-273.989 271.222-476.022 271.222s-379.157-107.935-476.022-271.222c-8.303-13.838-11.070-27.676-11.070-41.514s2.768-27.676 11.070-41.514c94.097-163.286 273.989-271.222 476.022-271.222s379.157 107.935 476.022 271.222c8.303 13.838 11.070 27.676 11.070 41.514s-5.535 27.676-11.070 41.514zM525.838 215.524c-174.357 0-323.805 91.33-406.832 229.708 74.724 127.308 210.335 215.87 365.319 229.708 16.605-16.605 27.676-41.514 27.676-66.422 0-52.584-41.514-94.097-94.097-94.097s-94.097 41.514-94.097 94.097v0c-16.605-33.211-27.676-69.189-27.676-107.935 0-127.308 102.4-229.708 229.708-229.708s229.708 102.4 229.708 229.708c0 52.584-16.605 99.632-47.049 138.378 94.097-38.746 171.589-107.935 224.173-193.73-83.027-138.378-232.476-229.708-406.832-229.708z" />
<glyph unicode="&#xe916;" glyph-name="tiklanma" horiz-adv-x="996" d="M986.522 92.495l-198.285 198.293 141.461 81.71c11.054 6.382 17.485 18.518 16.567 31.249-0.919 12.736-9.031 23.823-20.887 28.55l-630.806 251.629c-12.365 4.938-26.487 2.030-35.904-7.383-9.417-9.421-12.325-23.538-7.391-35.904l251.59-630.881c4.73-11.856 15.819-19.971 28.553-20.89 12.734-0.927 24.872 5.507 31.254 16.567l81.701 141.461 198.271-198.293c6.249-6.249 14.729-9.761 23.563-9.761 8.84 0 17.314 3.512 23.56 9.761l96.754 96.771c13.010 13.013 13.010 34.108-0.003 47.121zM146.261 836.076c-13.013 13.003-34.105 13.006-47.125 0-13.010-13.013-13.010-34.112 0-47.125l74.037-74.037c6.505-6.505 15.030-9.759 23.561-9.759 8.525 0 17.053 3.254 23.558 9.759 13.013 13.013 13.013 34.108 0 47.121l-74.030 74.040zM171.35 605.726c0 18.396-14.919 33.319-33.323 33.319h-104.703c-18.401 0-33.323-14.917-33.323-33.319s14.919-33.324 33.323-33.324h104.703c18.404 0.003 33.323 14.923 33.323 33.324zM157.845 502.886l-74.047-74.044c-13.010-13.013-13.010-34.11 0-47.121 6.508-6.507 15.036-9.761 23.561-9.761s17.056 3.255 23.561 9.761l74.044 74.041c13.013 13.013 13.013 34.11 0 47.123-13.010 13.002-34.098 13.008-47.118 0zM329.468 763.86c18.402 0 33.324 14.919 33.324 33.323v104.713c0 18.401-14.92 33.32-33.324 33.32-18.396 0-33.319-14.915-33.319-33.32v-104.717c0-18.401 14.917-33.32 33.319-33.32zM455.849 720.486c8.53 0 17.054 3.254 23.56 9.759l74.032 74.037c13.013 13.013 13.013 34.111 0 47.125-13.013 13.006-34.11 13.006-47.121 0l-74.035-74.040c-13.013-13.013-13.013-34.112 0-47.121 6.509-6.505 15.033-9.759 23.563-9.759z" />
<glyph unicode="&#xe917;" glyph-name="favori" horiz-adv-x="1052" d="M1050.749 570.277c-2.222 6.966-8.115 12.042-15.211 13.102l-340.538 50.572-152.291 315.316c-3.161 6.579-9.711 10.734-16.866 10.734s-13.724-4.155-16.868-10.734l-152.31-315.336-340.536-50.572c-7.097-1.057-12.97-6.116-15.21-13.099-2.202-6.947-0.376-14.602 4.763-19.7l246.433-245.45-58.187-346.596c-1.205-7.212 1.694-14.505 7.474-18.814 5.817-4.345 13.516-4.904 19.822-1.461l304.621 163.621 304.582-163.621c2.748-1.481 5.779-2.211 8.773-2.211 3.897 0 7.774 1.232 11.068 3.673 5.798 4.309 8.698 11.602 7.475 18.814l-58.169 346.577 246.433 245.469c5.12 5.137 6.966 12.772 4.744 19.716z" />
<glyph unicode="&#xe918;" glyph-name="kayit-ol" horiz-adv-x="777" d="M224.901 790.392h327.65c10.767 0 19.437 8.688 19.437 19.437v61.441h-86.086v49.856c0 21.458-17.416 38.874-38.874 38.874h-116.622c-21.458 0-38.874-17.416-38.874-38.874v-49.856h-86.067v-61.441c0-10.749 8.687-19.437 19.437-19.437zM610.867 871.27v-61.44c0-32.149-26.161-58.312-58.311-58.312h-327.631c-32.15 0-58.311 26.163-58.311 58.312v61.44h-166.614v-854.743c0-42.936 34.812-77.748 77.748-77.748h621.985c42.936 0 77.748 34.812 77.748 77.748v854.743h-166.614zM680.277 35.963h-583.112v628.613h583.112v-628.613zM574.254 565.273h-371.577v-77.748h371.577v77.748zM576.068 407.95h-371.577v-77.748h371.577v77.748zM356.995 250.569h-150.676v-77.748h150.676v77.748z" />
<glyph unicode="&#xe919;" glyph-name="gonder" horiz-adv-x="1337" d="M1323.56 959.334l-1302.733-481.212c-24.17-8.983-28.29-42.112-7.141-56.71l194.737-135.885 883.87 476.437-748.186-571.052v-231.342c0-15.721 17.303-25.267 30.214-16.563l164.799 111.741 162.327-113.143c14.831-10.388 35.157-5.897 44.769 9.825l589.156 993.023c4.944 8.142-3.021 18.249-11.81 14.88z" />
<glyph unicode="&#xe91a;" glyph-name="lokasyon" horiz-adv-x="731" d="M365.714 960c201.657 0 365.714-166.364 365.714-370.853 0-253.776-327.279-626.335-341.214-642.071-13.086-14.781-35.938-14.756-49.002 0-13.935 15.736-341.214 388.295-341.214 642.071 0.004 204.489 164.060 370.853 365.714 370.853zM365.714 402.562c101.458 0 183.998 83.703 183.998 186.585 0 102.885-82.543 186.585-183.998 186.585s-183.996-83.702-183.996-186.587c0-102.883 82.541-186.583 183.996-186.583z" />
<glyph unicode="&#xe91b;" glyph-name="logo" horiz-adv-x="2179" d="M1660.907 960c-219.485 0-406.83-135.017-482.391-325.225-25.188 3.789-50.614 5.685-76.761 5.685-33.824 0-66.928-3.316-99.071-9.476-74.841 192.341-263.144 329.016-484.31 329.016-286.174 0-518.375-229.293-518.375-511.882 0-282.826 232.201-511.882 518.375-511.882 77.238 0 150.402 16.817 216.127 46.666 107.226 48.559 194.542 132.175 247.314 235.924 4.558 11.369 9.355 22.265 15.352 32.926 17.991 42.399 29.746 88.117 35.501 135.491 22.069 5.685 44.856 9.001 68.605 9.001 15.113 0 29.743-1.659 44.376-3.789 5.278-47.374 16.794-92.856 34.304-135.494 8.394-14.21 15.352-29.134 20.869-44.767 53.253-100.909 139.608-181.918 244.676-229.292 65.486-29.609 138.408-46.19 215.169-46.19 286.413 0 518.375 229.292 518.375 511.882 0.239 282.114-231.723 511.407-518.136 511.407zM538.763 176.425c-46.295 0-89.954 11.608-128.333 31.741l0.239-0.236-184.705-36.478 59.968 174.337 0.242-0.473c-12.474 30.794-19.671 64.428-19.671 99.722 0 148.519 121.859 268.851 272.261 268.851s272.261-120.332 272.261-268.851c0-148.28-121.859-268.614-272.261-268.614zM1882.314 192.297l-93.313 18.477 0.242 0.236c-38.143-20.136-81.799-31.741-128.336-31.741-97.149 0-182.306 50.454-230.521 126.015-12.713 19.661-22.788 41.217-29.985 63.955-7.675 25.109-11.994 51.638-11.994 79.116 0 148.519 121.859 268.851 272.261 268.851s272.261-120.332 272.261-268.851c0-35.294-7.197-68.928-19.671-99.722l0.242 0.473 59.97-174.337-91.154 17.529z" />
<glyph unicode="&#xe91c;" glyph-name="sag-ok" horiz-adv-x="1195" d="M1077.263 484.198l-255.998 256c-20.019 20.019-52.378 20.019-72.397 0s-20.019-52.378 0-72.397l168.602-168.602h-849.204c-28.314 0-51.2-22.938-51.2-51.2s22.886-51.2 51.2-51.2h849.204l-168.602-168.602c-20.019-20.019-20.019-52.378 0-72.397 9.984-9.984 23.091-15.002 36.198-15.002s26.214 5.018 36.198 15.002l255.998 256c20.019 20.019 20.019 52.378 0 72.397z" />
<glyph unicode="&#xe91d;" glyph-name="duzenle" horiz-adv-x="997" d="M566.183 773.532l249.295-256.046-541.332-555.989-222.268-25.198c-29.755-3.382-54.895 22.461-51.584 53.019l24.731 228.444 541.158 555.77zM969.669 811.653l-117.054 120.222c-36.511 37.501-95.731 37.501-132.242 0l-110.12-113.102 249.295-256.044 110.12 113.101c36.511 37.522 36.511 98.323 0 135.823z" />
<glyph unicode="&#xe91e;" glyph-name="yuzde" horiz-adv-x="996" d="M283.246 668.655c64.789 66.642 64.789 174.723 0 241.364s-169.866 66.641-234.654 0c-64.788-66.641-64.788-174.722 0-241.364 64.814-66.665 169.866-66.665 234.654 0zM946.944 227.345c-64.788 66.64-169.865 66.64-234.652 0-64.788-66.642-64.788-174.723 0-241.365 64.788-66.64 169.865-66.64 234.652 0 64.816 66.642 64.816 174.697 0 241.365zM941.915 844.498l-58.644 60.321c-32.407 33.334-84.932 33.334-117.313 0l-712.311-732.676c-32.407-33.334-32.407-87.361 0-120.667l58.644-60.322c32.407-33.334 84.933-33.334 117.314 0l712.31 732.677c32.407 33.307 32.407 87.334 0 120.668z" />
<glyph unicode="&#xe91f;" glyph-name="mesaj-gonder" horiz-adv-x="1162" d="M0.148 476.304c0 255.542 254.876 462.601 569.357 462.601s569.358-207.059 569.358-462.601c0-255.543-254.876-462.604-569.358-462.604-72.948 0-142.339 11.566-206.616 31.805-64.72-45.814-172.585-102.973-309.364-102.973-21.351 0-40.7 12.675-49.151 32.248s-4.448 42.258 10.231 57.826c1.112 0.888 70.058 75.173 103.196 162.799-73.394 78.065-117.652 175.035-117.652 280.9zM302.512 405.061c49.138 0 88.972 39.836 88.972 88.975s-39.834 88.975-88.972 88.975c-49.139 0-88.974-39.836-88.974-88.975s39.835-88.975 88.974-88.975zM676.197 494.036c0 49.138-39.836 88.975-88.975 88.975s-88.972-39.836-88.972-88.975c0-49.138 39.834-88.975 88.972-88.975s88.975 39.836 88.975 88.975zM871.939 405.061c49.141 0 88.975 39.836 88.975 88.975s-39.834 88.975-88.975 88.975c-49.138 0-88.972-39.836-88.972-88.975s39.834-88.975 88.972-88.975z" />
<glyph unicode="&#xe920;" glyph-name="takvim" horiz-adv-x="1240" d="M1177.6 857.6c34.274 0 61.979-22.886 61.979-51.2v-819.2c0-28.314-27.705-51.2-61.979-51.2h-1115.621c-34.274 0-61.979 22.886-61.979 51.2v819.2c0 28.314 27.705 51.2 61.979 51.2h185.937v51.2c0 28.314 27.705 51.2 61.979 51.2s61.979-22.886 61.979-51.2v-51.2h495.832v51.2c0 28.314 27.705 51.2 61.979 51.2s61.979-22.886 61.979-51.2v-51.2h185.937zM123.953 38.4h991.662v512h-991.662v-512zM123.953 652.8h991.662v102.4h-991.662v-102.4zM371.874 448c-34.274 0-61.979-22.886-61.979-51.2s27.705-51.2 61.979-51.2c34.274 0 61.979 22.886 61.979 51.2s-27.705 51.2-61.979 51.2zM371.874 243.2c-34.274 0-61.979-22.886-61.979-51.2s27.705-51.2 61.979-51.2c34.274 0 61.979 22.886 61.979 51.2s-27.705 51.2-61.979 51.2zM619.803 243.2c-34.274 0-61.979-22.886-61.979-51.2s27.705-51.2 61.979-51.2c34.274 0 61.979 22.886 61.979 51.2s-27.705 51.2-61.979 51.2zM619.803 448c-34.274 0-61.979-22.886-61.979-51.2s27.705-51.2 61.979-51.2c34.274 0 61.979 22.886 61.979 51.2s-27.705 51.2-61.979 51.2zM867.711 448c-34.274 0-61.979-22.886-61.979-51.2s27.705-51.2 61.979-51.2c34.272 0 61.976 22.886 61.976 51.2s-27.705 51.2-61.976 51.2z" />
<glyph unicode="&#xe921;" glyph-name="kamerayi-cevir" horiz-adv-x="1422" d="M1304.792 770.757h-245.641c-8.875 0-19.888 5.567-28.467 14.349l-80.822 122.798c-29.804 46.519-47.559 46.519-100.83 46.519h-272.276c-53.268 0-68.066 0-100.827-46.519l-80.823-122.798c-6.57-6.945-15.804-14.349-25.511-14.349v45.917c0 6.089-2.495 11.928-6.935 16.234s-10.462 6.724-16.741 6.724h-118.379c-6.279 0-12.301-2.419-16.741-6.724s-6.935-10.145-6.935-16.234v-45.917h-82.865c-18.838 0-36.904-7.257-50.224-20.173s-20.803-30.435-20.803-48.702v-688.752c0-18.267 7.483-35.783 20.803-48.703 13.321-12.914 31.387-20.173 50.224-20.173h1183.792c18.836 0 36.904 7.259 50.222 20.173 13.318 12.919 20.804 30.436 20.804 48.703v688.752c0 18.267-7.487 35.786-20.804 48.702s-31.386 20.173-50.222 20.173zM712.897 127.92c-141.522 0-259.726 98.236-281.153 229.586h-129.122l173.514 168.256 173.512-168.256h-120.241c7.982-29.878 23.592-57.327 45.392-79.815 21.794-22.488 49.084-39.293 79.337-48.868 30.259-9.58 62.515-11.611 93.798-5.916 31.283 5.689 60.587 18.927 85.202 38.491l69.166-61.73-10.894-10.678c-50.631-39.413-113.584-60.951-178.512-61.070zM949.652 282.431l-174.285 166.909h121.014c-8.078 29.944-23.797 57.436-45.71 79.94-21.908 22.505-49.311 39.3-79.679 48.837s-62.72 11.509-94.077 5.735c-31.357-5.774-60.712-19.109-85.356-38.775l-68.071 64.972 9.293 7.031c50.706 39.971 114.057 61.808 179.405 61.844 141.608 0 257.473-98.119 278.898-229.584h132.944l-174.376-166.909z" />
<glyph unicode="&#xe922;" glyph-name="uzmanlar-line" horiz-adv-x="1077" d="M165.854 283.653l-87.089-268.884 215.862 46.424 58.804 12.997c61.411-35.281 131.379-56.451 206.932-59.051 247.125-8.541 454.428 184.21 463.36 430.067 8.56 246.603-184.601 453.465-431.726 462.007s-454.427-184.208-462.987-430.809c-2.605-68.335 11.165-133.7 36.846-192.751zM345.524 18.663l-39.857-8.812-304.949-65.581 109.247 337.227c-23.615 60.781-36.071 127.336-33.435 196.818 9.618 275.685 241.349 490.917 517.28 481.379 276.049-9.542 491.961-240.657 482.393-516.311l-0.003-0.084c-9.991-274.957-241.732-490.178-517.653-480.642-77.005 2.652-148.924 22.604-213.024 56.005z" />
<glyph unicode="&#xe923;" glyph-name="search" d="M708.923 526.768c0 75.897-26.975 140.821-80.923 194.77-53.95 53.948-118.871 80.923-194.769 80.923s-140.821-26.974-194.77-80.923c-53.948-53.95-80.923-118.873-80.923-194.77s26.974-140.819 80.923-194.769c53.95-53.948 118.873-80.923 194.77-80.923s140.819 26.975 194.769 80.923c53.948 53.95 80.923 118.871 80.923 194.769zM1024 14.768c0-21.333-7.796-39.794-23.385-55.383s-34.050-23.385-55.383-23.385c-22.154 0-40.617 7.796-55.385 23.385l-211.077 210.46c-73.436-50.872-155.282-76.307-245.538-76.307-58.668 0-114.77 11.385-168.308 34.154-53.54 22.769-99.693 53.538-138.462 92.308-38.769 38.768-69.539 84.922-92.308 138.46-22.769 53.54-34.154 109.642-34.154 168.308 0 58.668 11.385 114.77 34.154 168.308 22.769 53.54 53.539 99.693 92.308 138.462s84.922 69.539 138.462 92.308c53.538 22.769 109.64 34.154 168.308 34.154 58.666 0 114.768-11.385 168.308-34.154 53.538-22.769 99.692-53.539 138.46-92.308 38.77-38.769 69.539-84.922 92.308-138.462 22.769-53.538 34.154-109.64 34.154-168.308 0-90.256-25.435-172.102-76.307-245.538l211.077-211.077c15.18-15.18 22.769-33.64 22.769-55.385z" />
<glyph unicode="&#xe924;" glyph-name="geri-ok" horiz-adv-x="595" d="M568.946 92.929l-350.82 355.552 350.82 355.551c8.371 8.484 15.010 18.556 19.539 29.641 4.532 11.085 6.863 22.965 6.863 34.963s-2.331 23.879-6.863 34.964c-4.529 11.085-11.169 21.157-19.539 29.641-8.373 8.484-18.311 15.214-29.248 19.805-10.935 4.591-22.659 6.955-34.497 6.955s-23.562-2.363-34.499-6.955c-10.935-4.591-20.873-11.321-29.246-19.805l-415.014-420.614c-8.382-8.478-15.032-18.549-19.569-29.634s-6.873-22.969-6.873-34.971c0-12.002 2.335-23.885 6.873-34.971s11.187-21.156 19.569-29.632l415.014-420.614c35.264-35.74 92.227-35.74 127.49 0 34.356 35.738 35.261 94.384 0 130.124z" />
<glyph unicode="&#xe925;" glyph-name="ileri-ok" horiz-adv-x="619" d="M27.46 92.924l364.849 355.554-364.849 355.552c-8.706 8.484-15.612 18.556-20.323 29.641s-7.137 22.966-7.137 34.964c0 11.998 2.425 23.879 7.137 34.964s11.617 21.157 20.323 29.641c8.706 8.484 19.041 15.214 30.416 19.805s23.566 6.955 35.878 6.955c12.312 0 24.503-2.363 35.878-6.955s21.71-11.321 30.416-19.805l431.611-420.616c36.673-35.738 36.673-93.47 0-129.21l-431.611-420.616c-8.699-8.494-19.032-15.234-30.408-19.832s-23.57-6.966-35.885-6.966c-12.315 0-24.51 2.367-35.885 6.966s-21.709 11.338-30.408 19.832c-35.733 35.74-36.673 94.387 0 130.127z" />
<glyph unicode="&#xe926;" glyph-name="kum-saati" horiz-adv-x="905" d="M429.227 470.349c0-12.838 10.404-23.178 23.2-23.178s23.2 10.404 23.2 23.178c0.021 27.153 9.666 53.546 27.174 74.311 38.948 46.182 68.144 96.251 86.628 148.821 2.498 7.104 1.412 14.967-2.931 21.113-4.367 6.149-11.405 9.797-18.942 9.797h-230.279c-7.537 0-14.598-3.648-18.963-9.797-4.346-6.146-5.432-14.010-2.934-21.113 18.53-52.569 47.68-102.638 86.63-148.821 17.529-20.766 27.196-47.18 27.217-74.311zM475.662 377.354c0 12.817-10.404 23.178-23.2 23.178s-23.2-10.404-23.2-23.178c-0.021-33.494-20.028-66.622-56.325-93.491-77.636-57.327-135.744-119.603-172.715-185.075-4.062-7.213-3.997-15.989 0.196-23.069 4.127-7.147 11.774-11.514 20.028-11.514h464.076c8.232 0 15.858 4.367 20.028 11.514 4.148 7.080 4.215 15.855 0.174 23.069-36.95 65.472-95.077 127.748-172.692 185.075-36.342 26.869-56.349 59.997-56.37 93.491zM858.488 29.384h-13.881c-15.943 180.579-121.689 319.209-203.886 417.678 82.22 98.445 187.921 237.099 203.928 417.677h13.881c25.633 0 46.399 20.788 46.399 46.421s-20.766 46.399-46.399 46.399h-812.132c-25.632 0-46.399-20.788-46.399-46.399 0-25.632 20.767-46.421 46.399-46.421h13.881c15.966-180.6 121.667-319.254 203.886-417.677-82.198-98.445-187.92-237.077-203.908-417.678h-13.859c-25.632 0-46.399-20.744-46.399-46.378 0-25.652 20.767-46.442 46.399-46.442h812.132c25.633 0 46.399 20.79 46.399 46.442 0 25.633-20.787 46.378-46.442 46.378zM153.294 29.384c17.443 163.157 123.514 288.799 202.779 382.683l4.234 5.018c14.598 17.27 14.598 42.553 0 59.844l-4.213 4.996c-79.243 93.906-185.357 219.548-202.8 382.726h598.319c-17.444-163.178-123.556-288.821-202.8-382.726l-4.191-4.996c-14.598-17.267-14.598-42.553 0-59.844l4.234-5.018c79.243-93.884 185.313-219.527 202.757-382.683h-598.319z" />
<glyph unicode="&#xe927;" glyph-name="mic-acik" horiz-adv-x="768" d="M371.561 251.095c54.161 0 100.511 19.282 139.073 57.825 38.558 38.548 57.834 84.925 57.834 139.080v315.071c0 54.156-19.261 100.511-57.834 139.078-38.562 38.558-84.912 57.851-139.073 57.851-54.155 0-100.511-19.293-139.076-57.851-38.567-38.56-57.847-84.921-57.847-139.078v-315.071c0-54.155 19.289-100.532 57.847-139.080 38.558-38.543 84.921-57.825 139.076-57.825zM714.296 554.462c-7.772 7.796-17.024 11.695-27.689 11.695-10.655 0-19.886-3.899-27.689-11.695-7.788-7.794-11.689-17.023-11.689-27.686v-78.774c0-75.901-26.977-140.817-80.927-194.767-53.934-53.949-118.862-80.927-194.765-80.927-75.9 0-140.821 26.977-194.773 80.927-53.946 53.934-80.916 118.866-80.916 194.767v78.774c0 10.663-3.899 19.892-11.69 27.686-7.796 7.796-17.017 11.695-27.691 11.695s-19.905-3.899-27.697-11.695c-7.798-7.794-11.695-17.023-11.695-27.686v-78.774c0-90.667 30.262-169.541 90.769-236.613 60.509-67.072 135.278-105.528 224.309-115.369v-81.239h-157.537c-10.667 0-19.896-3.907-27.69-11.699-7.796-7.793-11.695-17.024-11.695-27.694 0-10.65 3.899-19.896 11.695-27.689 7.794-7.788 17.023-11.699 27.69-11.699h393.832c10.665 0 19.907 3.907 27.694 11.699 7.803 7.788 11.704 17.039 11.704 27.689 0 10.665-3.901 19.901-11.704 27.694-7.782 7.793-17.024 11.699-27.694 11.699h-157.516v81.239c89.016 9.841 163.778 48.297 224.296 115.369 60.513 67.072 90.783 145.946 90.783 236.613v78.774c0 10.661-3.907 19.884-11.715 27.686z" />
<glyph unicode="&#xe928;" glyph-name="mic-kapali" horiz-adv-x="922" d="M767.304 357.924c7.281 28.611 10.921 58.634 10.921 90.081v78.774c0 10.661-3.907 19.884-11.715 27.686-7.772 7.796-17.024 11.695-27.689 11.695-10.655 0-19.886-3.899-27.689-11.695-7.788-7.794-11.689-17.023-11.689-27.686v-78.774c0-12.631-0.742-24.955-2.237-36.977l70.098-53.105zM620.682 468.999v294.075c0 54.157-19.261 100.511-57.836 139.078-38.559 38.558-84.911 57.851-139.071 57.851-54.155 0-100.511-19.293-139.076-57.851-37.554-37.548-56.821-82.491-57.807-134.826l393.789-298.327zM226.853 474.11l274.224-207.748c-23.707-10.179-49.473-15.268-77.301-15.268-54.155 0-100.517 19.282-139.076 57.83s-57.847 84.925-57.847 139.078v26.107zM147.367 534.327c0.464-2.431 0.696-4.947 0.696-7.548v-78.774c0-75.904 26.971-140.836 80.916-194.765 53.952-53.949 118.873-80.927 194.774-80.927 54.473 0 103.295 13.896 146.452 41.682l65.997-49.997c-50.002-38.088-107.684-60.749-173.054-67.973v-81.244h157.515c10.67 0 19.912-3.901 27.694-11.699 7.803-7.788 11.704-17.024 11.704-27.689 0-10.65-3.901-19.901-11.704-27.689-7.788-7.793-17.029-11.699-27.694-11.699h-393.832c-10.667 0-19.896 3.907-27.69 11.699-7.796 7.788-11.695 17.039-11.695 27.689 0 10.665 3.899 19.901 11.695 27.689 7.794 7.798 17.023 11.699 27.69 11.699h157.537v81.244c-89.031 9.836-163.8 48.297-224.309 115.369-60.507 67.067-90.768 145.946-90.768 236.611v78.774c0 10.663 3.897 19.892 11.695 27.686 7.008 7.012 15.18 10.871 24.519 11.577l41.864-31.715zM861.24 142.264c-17.075-22.538-49.188-26.967-71.731-9.892l-752.174 571.631c-22.539 17.075-26.969 49.189-9.894 71.729s49.189 26.969 71.729 9.894l752.173-571.63c22.543-17.075 26.972-49.193 9.897-71.731z" />
<glyph unicode="&#xe929;" glyph-name="iptal" horiz-adv-x="1052" d="M725.177 448l298.98 291.113c36.69 35.724 36.69 93.644 0 129.397l-66.447 64.698c-36.69 35.724-96.173 35.724-132.893 0l-298.98-291.112-298.981 291.112c-36.689 35.724-96.175 35.724-132.894 0l-66.447-64.698c-36.689-35.724-36.689-93.644 0-129.397l298.981-291.113-298.981-291.112c-36.689-35.724-36.689-93.643 0-129.398l66.447-64.697c36.689-35.724 96.205-35.724 132.894 0l298.981 291.112 298.98-291.112c36.69-35.724 96.203-35.724 132.893 0l66.447 64.697c36.69 35.724 36.69 93.643 0 129.398l-298.98 291.112z" />
<glyph unicode="&#xe92a;" glyph-name="ses-acik" horiz-adv-x="1178" d="M1053.312 171.121l-139.715 80.686c-2.294 1.316-4.828 2.166-7.45 2.499-2.627 0.338-5.289 0.154-7.844-0.543-2.55-0.691-4.941-1.884-7.035-3.502s-3.845-3.63-5.161-5.929l-25.206-43.699c-5.571-9.626-2.278-22.036 7.347-27.612l139.715-80.686c2.294-1.316 4.828-2.166 7.45-2.499 2.627-0.338 5.289-0.154 7.839 0.543 2.555 0.691 4.946 1.884 7.040 3.502 2.089 1.618 3.845 3.63 5.156 5.929l25.211 43.699c5.571 9.626 2.15 22.036-7.347 27.612zM885.985 669.934c1.311-2.296 3.067-4.31 5.156-5.928 2.094-1.618 4.485-2.808 7.040-3.502 2.55-0.694 5.212-0.879 7.839-0.543 2.621 0.335 5.156 1.185 7.45 2.499l139.715 80.687c9.626 5.574 12.918 17.987 7.347 27.614l-25.083 43.573c-1.311 2.296-3.067 4.31-5.156 5.928-2.094 1.618-4.485 2.808-7.040 3.502-2.55 0.694-5.212 0.878-7.839 0.543-2.621-0.336-5.156-1.185-7.45-2.5l-139.715-80.687c-4.623-2.697-7.997-7.116-9.375-12.291-1.372-5.174-0.645-10.684 2.028-15.323l25.083-43.573zM1106.381 502.733h-162.13c-11.146 0-20.27-9.12-20.27-20.266v-50.666c0-11.146 9.124-20.265 20.27-20.265h162.13c11.151 0 20.27 9.119 20.27 20.265v50.666c0 11.147-9.119 20.266-20.27 20.266zM716.124 960c-7.475 0-15.073-2.027-22.042-6.713l-449.033-293.487h-207.733c-11.147 0-20.267-9.12-20.267-20.266v-364.799c0-11.146 9.12-20.265 20.267-20.265h207.733l449.033-293.489c6.968-4.562 14.694-6.712 22.042-6.712 21.151 0 40.658 16.845 40.658 40.658v924.414c0 23.813-19.507 40.66-40.658 40.66z" />
<glyph unicode="&#xe92b;" glyph-name="ses-kapali" horiz-adv-x="1122" d="M812.52 441.364v447.407c0 22.68-18.578 38.724-38.727 38.724-7.114 0-14.356-1.93-20.992-6.394l-304.562-199.063 364.281-280.674zM249.906 641.589h-122.595c-10.616 0-19.302-8.685-19.302-19.301v-347.427c0-10.615 8.686-19.305 19.302-19.305h197.841l427.648-279.508c6.636-4.345 13.995-6.398 20.992-6.398 20.148 0 38.727 16.048 38.727 38.727v199.724l-562.613 433.488zM1062.356 68.827c-22.089-22.143-57.207-24.357-81.905-5.174l-923.995 710.224c-29.426 22.862-32.172 66.334-5.855 92.716 22.086 22.141 57.208 24.359 81.904 5.173l923.995-710.223c29.428-22.86 32.173-66.336 5.856-92.716z" />
<glyph unicode="&#xe92c;" glyph-name="video-acik" horiz-adv-x="1463" d="M1197.239 629.364c-21.943-21.941-59.458-6.401-59.458 24.629v200.358c0 48.762-32.512 81.27-81.276 81.27h-975.235c-48.762 0-81.27-32.508-81.27-81.27v-812.696c0-48.764 32.508-81.269 81.27-81.269h975.235c48.764 0 81.276 32.505 81.276 81.269v200.355c0 31.030 37.515 46.57 59.458 24.628l206.16-206.163c21.943-21.943 59.458-6.4 59.458 24.627v725.797c0 31.030-37.515 46.57-59.458 24.628l-206.16-206.163z" />
<glyph unicode="&#xe92d;" glyph-name="video-kapali" horiz-adv-x="1252" d="M890.18 149.862l204.982-160.034c33.183-25.902 80.686-19.484 106.098 14.33 25.418 33.82 19.12 82.239-14.063 108.146l-1065.402 831.776c-33.214 25.931-80.764 19.508-106.204-14.347-25.404-33.806-19.162-82.194 13.954-108.156l137.449-107.76v-503.961c0-35.999 23.545-59.995 58.861-59.995h664.326zM1249.314 262.906c-0.751-20.571-23.865-31.505-39.964-19.075l-719.539 555.61c-19.275 14.883-8.948 46.207 15.233 46.207h447.941c35.311 0 58.857-23.998 58.857-59.995v-147.908c0-22.907 27.17-34.379 43.065-18.181l149.316 152.193c15.889 16.197 43.065 4.726 43.065-18.182 0-162.616 7.993-327.827 2.025-490.67z" />
<glyph unicode="&#xe92e;" glyph-name="Sort" horiz-adv-x="1126" d="M476.554 877.292h-433.231c-25.994 0-43.323-16.541-43.323-41.354v-82.707c0-24.813 17.329-41.354 43.323-41.354h433.231c25.994 0 43.321 16.541 43.321 41.354v82.707c0 24.813-17.327 41.354-43.321 41.354zM476.554 546.462h-433.231c-25.994 0-43.323-16.542-43.323-41.354v-82.708c0-24.812 17.329-41.354 43.323-41.354h433.231c25.994 0 43.321 16.543 43.321 41.354v82.708c0 24.812-17.327 41.354-43.321 41.354zM476.554 215.629h-433.231c-25.994 0-43.323-16.538-43.323-41.354v-82.703c0-24.817 17.329-41.354 43.323-41.354h433.231c25.994 0 43.321 16.538 43.321 41.354v82.703c0 24.817-17.327 41.354-43.321 41.354zM1113.405 368.64l-60.657 57.897c-8.663 8.269-21.658 12.406-30.326 12.406-12.995 0-21.658-4.137-30.326-12.406l-86.646-82.708c-12.995-12.406-38.989-4.137-38.989 16.543v558.275c0 20.677-21.663 41.354-43.325 41.354h-86.646c-21.663 0-43.32-20.677-43.32-41.354v-909.783c0-12.406 4.332-20.68 12.995-28.948s21.663-12.406 30.326-12.406c13 0 21.663 4.137 30.326 12.406l346.588 330.829c8.663 8.274 12.995 16.543 12.995 28.948s-4.332 20.68-12.995 28.948z" />
</font>
</defs>
</svg>
